Patient4_TMGait_0pt6_02_left_40_GRF.mot
version=1
nRows=58
nColumns=19
inDegrees=no
endheader
time	F1x	F1y	F1z	M1x	M1y	M1z	F2x	F2y	F2z	M2x	M2y	M2z	EC1x	EC1y	EC1z	EC2x	EC2y	EC2z
48.8	-5.8228	-6.5041	-3.2461	1.7501	6.335	-5.4143	-18.616	744.6073	-82.9698	240.0867	97.6218	803.2467	-0.0592	0.0182	-0.0073	-0.0462	0.0165	0.9585
48.8128	-3.9679	-3.5073	-2.0486	0.82778	4.1348	-2.8267	-16.3549	745.7606	-80.5634	240.2511	94.0799	800.8588	-0.0592	0.0182	-0.0073	-0.0462	0.0165	0.9585
48.8256	-2.4393	-0.94031	-1.0555	0.031617	2.2633	-0.51677	-14.0799	748.0075	-78.3548	240.8167	90.6609	799.05	-0.0592	0.0182	-0.0073	-0.0462	0.0165	0.9585
48.8384	-1.316	1.0569	-0.31956	-0.59246	0.83912	1.3669	-11.9936	751.4093	-76.4717	241.797	87.5669	798.0851	-0.0592	0.0182	-0.0073	-0.0462	0.0165	0.9585
48.8511	-0.55258	2.4793	0.1703	-1.0403	-0.13543	2.7601	-10.2137	755.7517	-74.9604	243.1057	84.893	797.9211	-0.0592	0.0182	-0.0073	-0.0462	0.0165	0.9585
48.8639	-0.12999	3.4084	0.45454	-1.3318	-0.7416	3.7236	-8.7171	760.5514	-73.7792	244.5708	82.6085	798.1725	-0.0592	0.0182	-0.0073	-0.0462	0.0165	0.9585
48.8767	0.057138	3.9091	0.58546	-1.4866	-1.0659	4.2658	-7.4025	765.1674	-72.8553	245.9734	80.6275	798.2494	-0.0592	0.0182	-0.0073	-0.0462	0.0165	0.9585
48.8895	0.059675	4.0614	0.62405	-1.5219	-1.2149	4.4582	-6.1246	768.936	-72.0942	247.0952	78.8266	797.5011	-0.0592	0.0182	-0.0073	-0.0462	0.0165	0.9585
48.9023	-0.049685	3.8747	0.60612	-1.4358	-1.2542	4.2764	-4.7519	771.279	-71.4207	247.751	77.103	795.3446	-0.0592	0.0182	-0.0073	-0.0462	0.0165	0.9585
48.9151	-0.23539	3.3299	0.5754	-1.2117	-1.2525	3.6936	-3.1872	771.7934	-70.7763	247.8157	75.3745	791.3646	-0.0592	0.0182	-0.0073	-0.0462	0.0165	0.9585
48.9279	-0.45256	2.3797	0.53256	-0.82528	-1.2248	2.6346	-1.3565	770.2723	-70.1227	247.23	73.58	785.3349	-0.0592	0.0182	-0.0073	-0.0462	0.0165	0.9585
48.9406	-0.65269	0.94595	0.49824	-0.24602	-1.1958	0.99493	0.76673	766.7056	-69.4306	245.9987	71.6794	777.2397	-0.0592	0.0182	-0.0073	-0.0462	0.0165	0.9585
48.9534	-0.80627	-1.0005	0.44961	0.53448	-1.144	-1.2548	3.2173	761.2382	-68.6868	244.1742	69.6454	767.2156	-0.0592	0.0182	-0.0073	-0.0462	0.0165	0.9585
48.9662	-0.8317	-3.4357	0.39776	1.4987	-1.0524	-4.0963	5.9923	754.1517	-67.882	241.8494	67.4631	755.5535	-0.0592	0.0182	-0.0073	-0.0462	0.0165	0.9585
48.979	-0.67396	-6.1532	0.30771	2.5627	-0.85503	-7.2793	9.0883	745.7785	-67.0243	239.1304	65.1362	742.5933	-0.0592	0.0182	-0.0073	-0.0462	0.0165	0.9585
48.9918	-0.21556	-8.722	0.17663	3.5518	-0.4916	-10.3323	12.4758	736.4887	-66.1271	236.1281	62.6835	728.7341	-0.0592	0.0182	-0.0073	-0.0462	0.0165	0.9585
49.0046	0.65958	-10.3521	-0.040555	4.1493	0.13665	-12.3292	16.1013	726.667	-65.22	232.9509	60.1451	714.3987	-0.0592	0.0182	-0.0073	-0.0462	0.0165	0.9585
49.0174	2.0938	-9.8313	-0.35309	3.8686	1.1014	-11.8635	19.8923	716.7039	-64.3368	229.7049	57.5701	700.005	-0.0592	0.0182	-0.0073	-0.0462	0.0165	0.9585
49.0301	4.1875	-5.4506	-0.77623	2.0268	2.4593	-6.9392	23.7441	707.0271	-63.5203	226.5057	55.0256	686.0208	-0.0592	0.0182	-0.0073	-0.0462	0.0165	0.9585
49.0429	6.9473	4.9426	-1.2739	-2.235	4.1722	4.9742	27.5591	698.0241	-62.7958	223.4631	52.5638	672.8747	-0.0592	0.0182	-0.0073	-0.0462	0.0165	0.9585
49.0557	10.2366	23.7752	-1.7808	-9.8791	6.0966	26.7411	31.2043	689.9525	-62.1648	220.6506	50.2287	660.89	-0.0592	0.0182	-0.0073	-0.0462	0.0165	0.9585
49.0685	13.6188	53.3641	-2.1566	-21.809	7.8837	61.1329	34.5978	682.6959	-61.5833	218.0333	48.0165	650.0058	-0.0592	0.0182	-0.0073	-0.0462	0.0165	0.9585
49.0813	16.3043	95.1721	-2.1867	-38.5786	8.9457	109.9342	37.6501	675.611	-60.9639	215.4178	45.8837	639.6651	-0.0592	0.0182	-0.0073	-0.0462	0.0165	0.9585
49.0941	16.9743	148.7609	-1.5519	-59.9665	8.3717	172.7816	40.3115	667.4871	-60.1512	212.443	43.714	628.748	-0.0592	0.0182	-0.0073	-0.0462	0.0165	0.9585
49.1069	14.0931	210.6688	0.14073	-84.537	5.0864	245.8101	42.5173	656.7563	-58.9467	208.6427	41.3563	615.7983	-0.0592	0.0182	-0.0073	-0.0462	0.0165	0.9585
49.1196	7.2859	274.5103	3.4174	-109.6677	-1.6579	321.7014	44.1962	641.8169	-57.1523	203.5448	38.6627	599.323	-0.0592	0.0182	-0.0073	-0.0462	0.0165	0.9585
49.1324	-1.9703	332.2125	8.7029	-132.1072	-11.7126	390.9352	45.2969	621.3755	-54.6588	196.7673	35.5667	578.1012	-0.0592	0.0182	-0.0073	-0.0462	0.0165	0.9585
49.1452	-11.7502	377.6217	15.4717	-149.4502	-23.6378	446.0642	45.7641	594.6801	-51.4942	188.0836	32.1292	551.4193	-0.0592	0.0182	-0.0073	-0.0462	0.0165	0.9585
49.158	-20.8999	409.7861	22.5097	-161.3773	-35.5283	485.801	45.6117	561.7006	-47.7878	177.4796	28.4795	519.2286	-0.0592	0.0182	-0.0073	-0.0462	0.0165	0.9585
49.1708	-29.0081	431.8275	28.7472	-169.2044	-45.992	513.7457	44.89	523.1623	-43.7511	165.1664	24.7985	482.1999	-0.0592	0.0182	-0.0073	-0.0462	0.0165	0.9585
49.1836	-36.0838	448.073	33.4957	-174.7283	-54.2392	534.9573	43.7078	480.2887	-39.5488	151.5137	21.1981	441.4461	-0.0592	0.0182	-0.0073	-0.0462	0.0165	0.9585
49.1964	-42.0315	462.0534	36.407	-179.4159	-59.8683	553.4089	42.1047	434.5308	-35.2574	136.9651	17.7319	398.3121	-0.0592	0.0182	-0.0073	-0.0462	0.0165	0.9585
49.2091	-46.6012	475.9688	37.7414	-184.1632	-63.0939	571.4921	40.0491	387.2503	-30.8908	121.9453	14.4209	354.0536	-0.0592	0.0182	-0.0073	-0.0462	0.0165	0.9585
49.2219	-49.5094	491.0369	38.0892	-189.4399	-64.5175	590.3738	37.4315	339.6392	-26.5129	106.8281	11.3481	309.783	-0.0592	0.0182	-0.0073	-0.0462	0.0165	0.9585
49.2347	-50.7594	507.6874	38.3847	-195.3671	-65.2114	610.3915	34.1563	292.7109	-22.25	91.9345	8.6389	266.4185	-0.0592	0.0182	-0.0073	-0.0462	0.0165	0.9585
49.2475	-50.6443	525.9175	39.4148	-201.9027	-66.2069	631.4452	30.2114	247.3652	-18.2849	77.5521	6.4383	224.7443	-0.0592	0.0182	-0.0073	-0.0462	0.0165	0.9585
49.2603	-49.5938	545.9413	41.6483	-209.1032	-68.2058	653.7191	25.7188	204.4819	-14.763	63.9619	4.8152	185.5195	-0.0592	0.0182	-0.0073	-0.0462	0.0165	0.9585
49.2731	-48.0245	568.4024	45.0376	-217.2194	-71.323	677.8991	20.9605	164.8365	-11.7648	51.4167	3.7373	149.3838	-0.0592	0.0182	-0.0073	-0.0462	0.0165	0.9585
49.2859	-46.2142	594.0086	49.3352	-226.5431	-75.3731	704.787	16.2499	129.0719	-9.2552	40.1272	3.0641	116.8774	-0.0592	0.0182	-0.0073	-0.0462	0.0165	0.9585
49.2986	-44.3868	623.1346	54.1033	-237.2337	-79.9355	734.8582	11.9103	97.6433	-7.1684	30.2412	2.6323	88.3663	-0.0592	0.0182	-0.0073	-0.0462	0.0165	0.9585
49.3114	-42.7084	655.412	59.027	-249.1509	-84.6861	767.78	8.153	70.7675	-5.4313	21.8261	2.3077	64.0277	-0.0592	0.0182	-0.0073	-0.0462	0.0165	0.9585
49.3242	-41.3307	689.6649	63.8483	-261.8267	-89.3717	802.3692	5.0774	48.4609	-3.9897	14.8791	2.013	43.859	-0.0592	0.0182	-0.0073	-0.0462	0.0165	0.9585
49.337	-40.3264	724.0912	68.4871	-274.5357	-93.9054	836.7587	2.6719	30.6571	-2.7835	9.3651	1.7016	27.7969	-0.0592	0.0182	-0.0073	-0.0462	0.0165	0.9585
49.3498	-39.6919	756.5963	72.8562	-286.4478	-98.1732	868.7485	0.8952	17.2029	-1.7944	5.2196	1.3761	15.7086	-0.0592	0.0182	-0.0073	-0.0462	0.0165	0.9585
49.3626	-39.3026	785.1786	76.847	-296.7872	-101.9959	896.2275	-0.26523	7.7735	-1.0157	2.3287	1.0425	7.2873	-0.0592	0.0182	-0.0073	-0.0462	0.0165	0.9585
49.3754	-38.9182	808.2217	80.2663	-304.9459	-105.0814	917.4516	-0.91922	1.8187	-0.45703	0.51214	0.74699	2.0219	-0.0592	0.0182	-0.0073	-0.0462	0.0165	0.9585
49.3881	-38.297	824.5618	82.9646	-310.5047	-107.1918	931.1683	-1.196	-1.4365	-0.091177	-0.47347	0.50845	-0.81775	-0.0592	0.0182	-0.0073	-0.0462	0.0165	0.9585
49.4009	-37.2238	833.5288	84.8368	-313.2447	-108.1591	936.6354	-1.2403	-2.7725	0.12586	-0.87037	0.33384	-1.9411	-0.0592	0.0182	-0.0073	-0.0462	0.0165	0.9585
49.4137	-35.563	835.0489	85.8512	-313.1754	-107.9263	933.784	-1.1436	-2.8885	0.23043	-0.8945	0.22085	-1.9881	-0.0592	0.0182	-0.0073	-0.0462	0.0165	0.9585
49.4265	-33.2367	829.613	86.0185	-310.5266	-106.5072	923.1509	-0.99102	-2.3257	0.26313	-0.71133	0.15621	-1.4362	-0.0592	0.0182	-0.0073	-0.0462	0.0165	0.9585
49.4393	-30.2725	818.2298	85.3899	-305.7186	-103.9936	905.8564	-0.83102	-1.4758	0.24387	-0.43842	0.13525	-0.63919	-0.0592	0.0182	-0.0073	-0.0462	0.0165	0.9585
49.4521	-26.7552	802.2989	84.0299	-299.3101	-100.5088	883.4463	-0.68821	-0.58398	0.19499	-0.14873	0.14428	0.18273	-0.0592	0.0182	-0.0073	-0.0462	0.0165	0.9585
49.4649	-22.8123	783.4664	82.0197	-291.9371	-96.2065	857.752	-0.57853	0.21497	0.1268	0.11649	0.1785	0.91173	-0.0592	0.0182	-0.0073	-0.0462	0.0165	0.9585
49.4776	-18.5817	763.4777	79.4423	-284.2548	-91.239	830.7044	-0.49466	0.85721	0.058636	0.33614	0.22077	1.4832	-0.0592	0.0182	-0.0073	-0.0462	0.0165	0.9585
49.4904	-14.1815	743.9967	76.4204	-276.8729	-85.7848	804.145	-0.44476	1.3441	-0.0045332	0.50641	0.27295	1.9071	-0.0592	0.0182	-0.0073	-0.0462	0.0165	0.9585
49.5032	-9.7262	726.456	73.1186	-270.3018	-80.0537	779.6597	-0.41305	1.6691	-0.05742	0.62513	0.32595	2.1735	-0.0592	0.0182	-0.0073	-0.0462	0.0165	0.9585
49.516	-5.2896	711.9312	69.756	-264.9094	-74.2947	758.4212	-0.41452	1.8429	-0.10503	0.69384	0.38496	2.3006	-0.0592	0.0182	-0.0073	-0.0462	0.0165	0.9585
49.5288	-0.94284	701.0954	66.5696	-260.9062	-68.7643	741.151	-0.44193	1.8548	-0.14472	0.7073	0.43987	2.2637	-0.0592	0.0182	-0.0073	-0.0462	0.0165	0.9585
